<svg width="249" height="247" viewBox="0 0 249 247" fill="none" xmlns="http://www.w3.org/2000/svg">
<path d="M81.4408 47.8896L87.5793 44.7343L87.599 44.252L80.0037 48.1561L84.4838 56.8721L92.3656 52.8207L92.3852 52.3384L85.537 55.8585L82.7209 50.3799L87.415 47.967L87.4347 47.4847L82.5289 50.0064L81.4408 47.8896Z" fill="black"/>
<path d="M100.538 41.5738L100.835 41.4917L107.282 47.8437L108.847 47.411L100.771 39.4758L100.637 39.5131L97.7958 50.4657L98.2681 50.3352L100.538 41.5738Z" fill="black"/>
<path d="M114.888 37.123L121.776 36.6778L121.986 36.2434L113.464 36.7942L114.096 46.5738L122.94 46.0022L123.15 45.5677L115.466 46.0644L115.069 39.9172L120.336 39.5768L120.546 39.1423L115.042 39.4981L114.888 37.123Z" fill="black"/>
<path d="M131.561 36.522L130.173 36.3347L128.862 46.0466L130.25 46.2339L131.13 39.7131L139.038 40.7806L138.158 47.3014L139.546 47.4887L140.857 37.7768L139.469 37.5895L139.095 40.3643L131.186 39.2968L131.561 36.522Z" fill="black"/>
<path d="M152.083 43.0287L152.825 47.165L148.584 45.6374L151.793 42.9244L152.083 43.0287ZM153.681 51.9372L155.209 52.4876L153.195 41.346L153.063 41.2986L144.421 48.6021L144.882 48.7682L148.231 45.9566L152.907 47.6408L153.681 51.9372Z" fill="black"/>
<path d="M171.683 50.5417L171.22 50.2529L168.349 51.763L164.879 49.6011L166.36 47.2247L165.172 46.4843L159.989 54.8017L161.177 55.542L164.657 49.9575L167.461 51.7049L167.202 59.2959L168.58 60.1547L168.836 52.0666L171.683 50.5417Z" fill="black"/>
<path d="M175.338 65.7033L175.705 66.049L186.543 62.7985L186.176 62.4527L179.982 64.3088L179.493 63.8478L180.981 57.5547L179.81 56.4503L178.206 63.2122L179.52 64.4511L175.338 65.7033Z" fill="black"/>
<path d="M193.042 75.3128L190.022 71.1045L191.955 69.7167L194.976 73.925C195.506 74.6643 195.263 74.9253 194.523 75.4559C193.761 76.0028 193.573 76.0521 193.042 75.3128ZM192.864 75.7851C193.583 76.786 194.421 77.4254 195.421 76.707C196.422 75.9886 196.198 74.9085 195.48 73.9076L191.48 68.3345L183.519 74.0487L184.335 75.1861L189.681 71.3494L192.864 75.7851Z" fill="black"/>
<path d="M201.137 87.9587L198.661 91.354L196.833 87.233L201.012 87.6772L201.137 87.9587ZM195.803 95.2707L196.462 96.7552L203.122 87.5993L203.065 87.4713L191.813 86.2736L192.012 86.7215L196.359 87.1985L198.373 91.7418L195.803 95.2707Z" fill="black"/>
<path d="M210.008 111.104L209.731 109.732L200.537 111.591L199.821 108.05L209.01 106.164L208.732 104.792L199.538 106.65L198.817 103.083L208.011 101.224L207.734 99.852L198.128 101.794L200.403 113.046L210.008 111.104Z" fill="black"/>
<path d="M210.608 126.111L210.614 125.565L207.834 123.893L207.884 119.806L210.684 119.839L210.7 118.44L200.901 118.321L200.884 119.721L207.464 119.801L207.424 123.104L200.798 126.818L200.779 128.442L207.827 124.467L210.608 126.111Z" fill="black"/>
<path d="M206.956 144.255L198.4 142.424L198.107 143.793L207.69 145.844L207.954 144.612L201.197 135.907L201.236 135.729L209.477 137.493L209.77 136.124L200.187 134.073L199.982 135.031L206.994 144.077L206.956 144.255Z" fill="black"/>
<path d="M205.111 153.613L205.669 152.329L196.679 148.427L196.122 149.711L202.158 152.331L198.98 159.651L192.944 157.031L192.387 158.315L201.376 162.217L201.934 160.933L199.365 159.818L202.543 152.498L205.111 153.613Z" fill="black"/>
<path d="M193.27 171.591L189.088 171.181L191.711 167.515L193.449 171.341L193.27 171.591ZM184.263 170.707L183.318 172.027L194.587 173.119L194.668 173.005L189.99 162.703L189.705 163.101L191.5 167.088L188.608 171.13L184.263 170.707Z" fill="black"/>
<path d="M170.47 195.584L164.503 199.054L164.508 199.536L171.891 195.244L166.965 186.772L159.304 191.226L159.309 191.709L165.966 187.839L169.062 193.164L164.499 195.817L164.505 196.3L169.273 193.527L170.47 195.584Z" fill="black"/>
<path d="M151.725 202.882L151.433 202.979L144.665 196.97L143.124 197.483L151.6 204.989L151.733 204.945L154.002 193.86L153.538 194.014L151.725 202.882Z" fill="black"/>
<path d="M137.624 208.07L130.769 208.872L130.582 209.316L139.064 208.325L137.926 198.591L129.124 199.62L128.936 200.065L136.584 199.171L137.299 205.289L132.057 205.902L131.869 206.347L137.348 205.706L137.624 208.07Z" fill="black"/>
<path d="M121.004 209.535L122.399 209.65L123.205 199.883L121.81 199.768L121.269 206.326L113.316 205.669L113.857 199.112L112.462 198.996L111.656 208.763L113.051 208.878L113.281 206.088L121.234 206.744L121.004 209.535Z" fill="black"/>
<path d="M100.175 204.101L99.2193 200.008L103.534 201.314L100.47 204.19L100.175 204.101ZM98.1176 195.287L96.5633 194.816L99.1516 205.839L99.2856 205.879L107.538 198.138L107.069 197.996L103.87 200.977L99.1131 199.537L98.1176 195.287Z" fill="black"/>
<path d="M80.2119 197.613L80.6896 197.878L83.4785 196.221L87.0554 198.2L85.6998 200.65L86.9247 201.328L91.6695 192.753L90.4445 192.075L87.2588 197.833L84.3678 196.233L84.2339 188.639L82.813 187.852L82.9763 195.943L80.2119 197.613Z" fill="black"/>
<path d="M75.7745 182.661L75.3904 182.335L64.7353 186.143L65.1195 186.469L71.2096 184.294L71.7218 184.729L70.5614 191.091L71.7886 192.133L73.0394 185.297L71.6629 184.128L75.7745 182.661Z" fill="black"/>
<path d="M57.5979 173.982L60.8323 178.028L58.9732 179.514L55.7388 175.468C55.1706 174.757 55.4003 174.484 56.1111 173.916C56.8438 173.33 57.0296 173.271 57.5979 173.982ZM57.7511 173.501C56.9818 172.539 56.1118 171.944 55.1495 172.713C54.1872 173.482 54.4667 174.549 55.2359 175.512L59.5194 180.87L67.1741 174.751L66.3 173.657L61.1603 177.766L57.7511 173.501Z" fill="black"/>
<path d="M48.8561 161.773L51.153 158.254L53.1915 162.275L48.9953 162.048L48.8561 161.773ZM53.8038 154.195L53.0694 152.746L46.8927 162.235L46.956 162.36L58.2544 162.973L58.0328 162.536L53.6674 162.285L51.4199 157.852L53.8038 154.195Z" fill="black"/>
<path d="M38.798 139.116L39.1461 140.472L48.2315 138.14L49.1296 141.639L40.0512 143.998L40.3993 145.354L49.4847 143.022L50.3898 146.547L41.3044 148.88L41.6525 150.236L51.1447 147.799L48.2902 136.68L38.798 139.116Z" fill="black"/>
<path d="M37.4234 124.162L37.4451 124.708L40.308 126.233L40.4705 130.318L37.6727 130.429L37.7283 131.828L47.5206 131.439L47.465 130.04L40.8902 130.301L40.7589 127L47.1829 122.948L47.1183 121.325L40.2852 125.66L37.4234 124.162Z" fill="black"/>
<path d="M40.1282 105.854L48.7678 107.239L48.9895 105.856L39.313 104.305L39.1136 105.549L46.3117 113.892L46.2829 114.071L37.9612 112.737L37.7396 114.12L47.416 115.671L47.5711 114.703L40.0994 106.033L40.1282 105.854Z" fill="black"/>
<path d="M41.4853 96.4134L40.9951 97.7248L50.1749 101.156L50.6651 99.8444L44.5015 97.5408L47.2953 90.0658L53.4589 92.3695L53.949 91.0581L44.7693 87.6271L44.2791 88.9385L46.9019 89.9188L44.1081 97.3937L41.4853 96.4134Z" fill="black"/>
<path d="M52.3807 77.8451L56.5785 78.0381L54.1488 81.8352L52.2146 78.1045L52.3807 77.8451ZM61.4217 78.2617L62.297 76.8937L50.9863 76.3877L50.9108 76.5056L56.1171 86.5518L56.3812 86.139L54.3819 82.2503L57.0606 78.064L61.4217 78.2617Z" fill="black"/>
</svg>
