<svg width="125" height="30" viewBox="0 0 125 30" fill="none" xmlns="http://www.w3.org/2000/svg">
<path d="M2.8 9V4.24H16.604L17.08 3.4H0V23H17.724L18.2 22.16H2.8V9.84H13.356L13.832 9H2.8ZM36.7268 3.4H35.6348L32.3588 9H24.1828V3.4H21.3828V23H24.1828V9.84H30.7908L38.3788 23H41.6268L33.5068 9L36.7268 3.4Z" fill="white"/>
<path d="M55.88 10V9.06H55.6C55.1267 9.06 54.7033 9.00333 54.33 8.89C53.9633 8.77667 53.67 8.63333 53.45 8.46C53.23 8.28667 53.0467 8.08 52.9 7.84C52.76 7.6 52.6633 7.37 52.61 7.15C52.5633 6.92333 52.54 6.69333 52.54 6.46C52.54 6.22667 52.5633 6 52.61 5.78C52.6633 5.55333 52.76 5.32 52.9 5.08C53.0467 4.84 53.23 4.63333 53.45 4.46C53.67 4.28667 53.9633 4.14333 54.33 4.03C54.7033 3.91667 55.1267 3.86 55.6 3.86H55.88V3.06H56.32V3.86H56.6C57.0733 3.86 57.4933 3.91667 57.86 4.03C58.2333 4.14333 58.53 4.28667 58.75 4.46C58.97 4.63333 59.15 4.84 59.29 5.08C59.4367 5.32 59.5333 5.55333 59.58 5.78C59.6333 6 59.66 6.22667 59.66 6.46C59.66 6.69333 59.6333 6.92333 59.58 7.15C59.5333 7.37 59.4367 7.6 59.29 7.84C59.15 8.08 58.97 8.28667 58.75 8.46C58.53 8.63333 58.2333 8.77667 57.86 8.89C57.4933 9.00333 57.0733 9.06 56.6 9.06H56.32V10H55.88ZM55.88 8.66V4.26H55.58C55.0933 4.26 54.67 4.33 54.31 4.47C53.9567 4.60333 53.69 4.78333 53.51 5.01C53.33 5.23667 53.2 5.47 53.12 5.71C53.04 5.94333 53 6.19333 53 6.46C53 6.72667 53.04 6.98 53.12 7.22C53.2 7.45333 53.33 7.68333 53.51 7.91C53.69 8.13667 53.9567 8.32 54.31 8.46C54.67 8.59333 55.0933 8.66 55.58 8.66H55.88ZM56.32 4.26V8.66H56.62C57.1067 8.66 57.5267 8.59333 57.88 8.46C58.24 8.32 58.51 8.13667 58.69 7.91C58.87 7.68333 59 7.45333 59.08 7.22C59.16 6.98 59.2 6.72667 59.2 6.46C59.2 6.19333 59.16 5.94333 59.08 5.71C59 5.47 58.87 5.23667 58.69 5.01C58.51 4.78333 58.24 4.60333 57.88 4.47C57.5267 4.33 57.1067 4.26 56.62 4.26H56.32ZM61.7431 4.24C62.4098 3.57333 63.2298 3.24 64.2031 3.24C65.1765 3.24 65.9965 3.57333 66.6631 4.24C67.3298 4.90667 67.6631 5.72 67.6631 6.68C67.6631 7.64 67.3298 8.45333 66.6631 9.12C65.9965 9.78 65.1765 10.11 64.2031 10.11C63.2298 10.11 62.4098 9.78 61.7431 9.12C61.0765 8.45333 60.7431 7.64 60.7431 6.68C60.7431 5.72 61.0765 4.90667 61.7431 4.24ZM62.0631 8.84C62.6365 9.42 63.3498 9.71 64.2031 9.71C65.0565 9.71 65.7698 9.42 66.3431 8.84C66.9165 8.25333 67.2031 7.53333 67.2031 6.68C67.2031 5.82 66.9165 5.1 66.3431 4.52C65.7698 3.93333 65.0565 3.64 64.2031 3.64C63.3498 3.64 62.6365 3.93333 62.0631 4.52C61.4898 5.1 61.2031 5.82 61.2031 6.68C61.2031 7.53333 61.4898 8.25333 62.0631 8.84ZM71.9287 3.73H70.1987V10H69.7587V3.73H68.0287V3.33H71.9287V3.73ZM73.2959 4.24C73.9625 3.57333 74.7825 3.24 75.7559 3.24C76.7292 3.24 77.5492 3.57333 78.2159 4.24C78.8825 4.90667 79.2159 5.72 79.2159 6.68C79.2159 7.64 78.8825 8.45333 78.2159 9.12C77.5492 9.78 76.7292 10.11 75.7559 10.11C74.7825 10.11 73.9625 9.78 73.2959 9.12C72.6292 8.45333 72.2959 7.64 72.2959 6.68C72.2959 5.72 72.6292 4.90667 73.2959 4.24ZM73.6159 8.84C74.1892 9.42 74.9025 9.71 75.7559 9.71C76.6092 9.71 77.3225 9.42 77.8959 8.84C78.4692 8.25333 78.7559 7.53333 78.7559 6.68C78.7559 5.82 78.4692 5.1 77.8959 4.52C77.3225 3.93333 76.6092 3.64 75.7559 3.64C74.9025 3.64 74.1892 3.93333 73.6159 4.52C73.0425 5.1 72.7559 5.82 72.7559 6.68C72.7559 7.53333 73.0425 8.25333 73.6159 8.84ZM80.6539 10V3.33H83.6139V3.73H81.0939V10H80.6539ZM85.9578 6.83H85.0978V10H84.6578V3.33H85.9478C86.5145 3.33 86.9811 3.48333 87.3478 3.79C87.7145 4.09 87.8978 4.51667 87.8978 5.07C87.8978 5.61667 87.7211 6.04667 87.3678 6.36C87.0145 6.67333 86.5445 6.83 85.9578 6.83ZM85.0978 3.73V6.43H85.9778C86.4178 6.43 86.7711 6.31 87.0378 6.07C87.3045 5.82333 87.4378 5.49333 87.4378 5.08C87.4378 4.66 87.3011 4.33 87.0278 4.09C86.7611 3.85 86.3878 3.73 85.9078 3.73H85.0978ZM93.0603 10L92.1703 7.81H89.3303L88.4403 10H87.9603L90.7703 3.13L93.5403 10H93.0603ZM89.4903 7.41H92.0103L90.7603 4.25L89.4903 7.41ZM97.2472 10V9.06H96.9672C96.4939 9.06 96.0705 9.00333 95.6972 8.89C95.3305 8.77667 95.0372 8.63333 94.8172 8.46C94.5972 8.28667 94.4139 8.08 94.2672 7.84C94.1272 7.6 94.0305 7.37 93.9772 7.15C93.9305 6.92333 93.9072 6.69333 93.9072 6.46C93.9072 6.22667 93.9305 6 93.9772 5.78C94.0305 5.55333 94.1272 5.32 94.2672 5.08C94.4139 4.84 94.5972 4.63333 94.8172 4.46C95.0372 4.28667 95.3305 4.14333 95.6972 4.03C96.0705 3.91667 96.4939 3.86 96.9672 3.86H97.2472V3.06H97.6872V3.86H97.9672C98.4405 3.86 98.8605 3.91667 99.2272 4.03C99.6005 4.14333 99.8972 4.28667 100.117 4.46C100.337 4.63333 100.517 4.84 100.657 5.08C100.804 5.32 100.901 5.55333 100.947 5.78C101.001 6 101.027 6.22667 101.027 6.46C101.027 6.69333 101.001 6.92333 100.947 7.15C100.901 7.37 100.804 7.6 100.657 7.84C100.517 8.08 100.337 8.28667 100.117 8.46C99.8972 8.63333 99.6005 8.77667 99.2272 8.89C98.8605 9.00333 98.4405 9.06 97.9672 9.06H97.6872V10H97.2472ZM97.2472 8.66V4.26H96.9472C96.4605 4.26 96.0372 4.33 95.6772 4.47C95.3239 4.60333 95.0572 4.78333 94.8772 5.01C94.6972 5.23667 94.5672 5.47 94.4872 5.71C94.4072 5.94333 94.3672 6.19333 94.3672 6.46C94.3672 6.72667 94.4072 6.98 94.4872 7.22C94.5672 7.45333 94.6972 7.68333 94.8772 7.91C95.0572 8.13667 95.3239 8.32 95.6772 8.46C96.0372 8.59333 96.4605 8.66 96.9472 8.66H97.2472ZM97.6872 4.26V8.66H97.9872C98.4739 8.66 98.8939 8.59333 99.2472 8.46C99.6072 8.32 99.8772 8.13667 100.057 7.91C100.237 7.68333 100.367 7.45333 100.447 7.22C100.527 6.98 100.567 6.72667 100.567 6.46C100.567 6.19333 100.527 5.94333 100.447 5.71C100.367 5.47 100.237 5.23667 100.057 5.01C99.8772 4.78333 99.6072 4.60333 99.2472 4.47C98.8939 4.33 98.4739 4.26 97.9872 4.26H97.6872ZM104.804 10V3.33H106.264C106.838 3.33 107.288 3.48333 107.614 3.79C107.941 4.09 108.104 4.49333 108.104 5C108.104 5.65333 107.844 6.14 107.324 6.46C107.751 6.52667 108.088 6.71333 108.334 7.02C108.581 7.32667 108.704 7.69667 108.704 8.13C108.704 8.70333 108.511 9.16 108.124 9.5C107.744 9.83333 107.248 10 106.634 10H104.804ZM105.244 3.73V6.35H106.304C106.684 6.35 106.988 6.25667 107.214 6.07C107.508 5.83 107.654 5.49 107.654 5.05C107.654 4.60333 107.504 4.25667 107.204 4.01C106.964 3.82333 106.594 3.73 106.094 3.73H105.244ZM105.244 6.75V9.6H106.364C106.571 9.6 106.734 9.59667 106.854 9.59C106.974 9.57667 107.128 9.54 107.314 9.48C107.508 9.42 107.674 9.32667 107.814 9.2C108.101 8.94667 108.244 8.60667 108.244 8.18C108.244 7.57333 108.008 7.16 107.534 6.94C107.248 6.81333 106.831 6.75 106.284 6.75H105.244ZM110.786 4.24C111.453 3.57333 112.273 3.24 113.246 3.24C114.219 3.24 115.039 3.57333 115.706 4.24C116.373 4.90667 116.706 5.72 116.706 6.68C116.706 7.64 116.373 8.45333 115.706 9.12C115.039 9.78 114.219 10.11 113.246 10.11C112.273 10.11 111.453 9.78 110.786 9.12C110.119 8.45333 109.786 7.64 109.786 6.68C109.786 5.72 110.119 4.90667 110.786 4.24ZM111.106 8.84C111.679 9.42 112.393 9.71 113.246 9.71C114.099 9.71 114.813 9.42 115.386 8.84C115.959 8.25333 116.246 7.53333 116.246 6.68C116.246 5.82 115.959 5.1 115.386 4.52C114.813 3.93333 114.099 3.64 113.246 3.64C112.393 3.64 111.679 3.93333 111.106 4.52C110.533 5.1 110.246 5.82 110.246 6.68C110.246 7.53333 110.533 8.25333 111.106 8.84ZM52.9 23V16.33H54.36C54.9333 16.33 55.3833 16.4833 55.71 16.79C56.0367 17.09 56.2 17.4933 56.2 18C56.2 18.6533 55.94 19.14 55.42 19.46C55.8467 19.5267 56.1833 19.7133 56.43 20.02C56.6767 20.3267 56.8 20.6967 56.8 21.13C56.8 21.7033 56.6067 22.16 56.22 22.5C55.84 22.8333 55.3433 23 54.73 23H52.9ZM53.34 16.73V19.35H54.4C54.78 19.35 55.0833 19.2567 55.31 19.07C55.6033 18.83 55.75 18.49 55.75 18.05C55.75 17.6033 55.6 17.2567 55.3 17.01C55.06 16.8233 54.69 16.73 54.19 16.73H53.34ZM53.34 19.75V22.6H54.46C54.6667 22.6 54.83 22.5967 54.95 22.59C55.07 22.5767 55.2233 22.54 55.41 22.48C55.6033 22.42 55.77 22.3267 55.91 22.2C56.1967 21.9467 56.34 21.6067 56.34 21.18C56.34 20.5733 56.1033 20.16 55.63 19.94C55.3433 19.8133 54.9267 19.75 54.38 19.75H53.34ZM58.8818 16.33H62.6418V23H62.2018V16.73H59.3218V20.61C59.3218 20.9433 59.3151 21.2033 59.3018 21.39C59.2951 21.57 59.2551 21.7867 59.1818 22.04C59.1085 22.2933 58.9985 22.5 58.8518 22.66C58.6118 22.9267 58.2885 23.06 57.8818 23.06C57.7751 23.06 57.6418 23.04 57.4818 23V22.6C57.6151 22.64 57.7385 22.66 57.8518 22.66C58.1118 22.66 58.3285 22.5733 58.5018 22.4C58.6218 22.28 58.7085 22.11 58.7618 21.89C58.8218 21.67 58.8551 21.48 58.8618 21.32C58.8751 21.1533 58.8818 20.9167 58.8818 20.61V16.33ZM68.783 23L67.893 20.81H65.053L64.163 23H63.683L66.493 16.13L69.263 23H68.783ZM65.213 20.41H67.733L66.483 17.25L65.213 20.41ZM70.94 16.33H74.7V22.6H75.46V24.34H75.04V23H70.06V24.34H69.64V22.6C69.8667 22.6 70.0733 22.5167 70.26 22.35C70.4467 22.1833 70.5933 21.9667 70.7 21.7C70.86 21.2933 70.94 20.71 70.94 19.95V16.33ZM71.38 16.73V19.95C71.38 20.77 71.3 21.39 71.14 21.81C71.0267 22.11 70.8567 22.3733 70.63 22.6H74.26V16.73H71.38ZM81.2635 23V17.44L76.5035 23.17V16.33H76.9435V21.99L81.7035 16.26V23H81.2635ZM83.5055 23V16.33H84.9655C85.5388 16.33 85.9888 16.4833 86.3155 16.79C86.6421 17.09 86.8055 17.4933 86.8055 18C86.8055 18.6533 86.5455 19.14 86.0255 19.46C86.4521 19.5267 86.7888 19.7133 87.0355 20.02C87.2821 20.3267 87.4055 20.6967 87.4055 21.13C87.4055 21.7033 87.2121 22.16 86.8255 22.5C86.4455 22.8333 85.9488 23 85.3355 23H83.5055ZM83.9455 16.73V19.35H85.0055C85.3855 19.35 85.6888 19.2567 85.9155 19.07C86.2088 18.83 86.3555 18.49 86.3555 18.05C86.3555 17.6033 86.2055 17.2567 85.9055 17.01C85.6655 16.8233 85.2955 16.73 84.7955 16.73H83.9455ZM83.9455 19.75V22.6H85.0655C85.2721 22.6 85.4355 22.5967 85.5555 22.59C85.6755 22.5767 85.8288 22.54 86.0155 22.48C86.2088 22.42 86.3755 22.3267 86.5155 22.2C86.8021 21.9467 86.9455 21.6067 86.9455 21.18C86.9455 20.5733 86.7088 20.16 86.2355 19.94C85.9488 19.8133 85.5321 19.75 84.9855 19.75H83.9455ZM89.4873 17.24C90.1539 16.5733 90.9739 16.24 91.9473 16.24C92.9206 16.24 93.7406 16.5733 94.4073 17.24C95.0739 17.9067 95.4073 18.72 95.4073 19.68C95.4073 20.64 95.0739 21.4533 94.4073 22.12C93.7406 22.78 92.9206 23.11 91.9473 23.11C90.9739 23.11 90.1539 22.78 89.4873 22.12C88.8206 21.4533 88.4873 20.64 88.4873 19.68C88.4873 18.72 88.8206 17.9067 89.4873 17.24ZM89.8073 21.84C90.3806 22.42 91.0939 22.71 91.9473 22.71C92.8006 22.71 93.5139 22.42 94.0873 21.84C94.6606 21.2533 94.9473 20.5333 94.9473 19.68C94.9473 18.82 94.6606 18.1 94.0873 17.52C93.5139 16.9333 92.8006 16.64 91.9473 16.64C91.0939 16.64 90.3806 16.9333 89.8073 17.52C89.2339 18.1 88.9473 18.82 88.9473 19.68C88.9473 20.5333 89.2339 21.2533 89.8073 21.84ZM102.185 17.11V17.69C101.899 17.3567 101.559 17.1 101.165 16.92C100.779 16.7333 100.369 16.64 99.9353 16.64C99.0886 16.64 98.3786 16.9367 97.8053 17.53C97.232 18.1233 96.9453 18.8467 96.9453 19.7C96.9453 20.1733 97.0353 20.6067 97.2153 21C97.402 21.3933 97.642 21.7133 97.9353 21.96C98.2353 22.2 98.5586 22.3867 98.9053 22.52C99.252 22.6467 99.5986 22.71 99.9453 22.71C100.319 22.71 100.705 22.63 101.105 22.47C101.505 22.3033 101.865 22.0467 102.185 21.7V22.28C101.559 22.8333 100.819 23.11 99.9653 23.11C98.9786 23.11 98.152 22.7733 97.4853 22.1C96.8186 21.4267 96.4853 20.62 96.4853 19.68C96.4853 18.72 96.822 17.9067 97.4953 17.24C98.1686 16.5733 98.9853 16.24 99.9453 16.24C100.825 16.24 101.572 16.53 102.185 17.11ZM106.763 16.73H105.033V23H104.593V16.73H102.863V16.33H106.763V16.73ZM108.13 17.24C108.797 16.5733 109.617 16.24 110.59 16.24C111.563 16.24 112.383 16.5733 113.05 17.24C113.717 17.9067 114.05 18.72 114.05 19.68C114.05 20.64 113.717 21.4533 113.05 22.12C112.383 22.78 111.563 23.11 110.59 23.11C109.617 23.11 108.797 22.78 108.13 22.12C107.463 21.4533 107.13 20.64 107.13 19.68C107.13 18.72 107.463 17.9067 108.13 17.24ZM108.45 21.84C109.023 22.42 109.737 22.71 110.59 22.71C111.443 22.71 112.157 22.42 112.73 21.84C113.303 21.2533 113.59 20.5333 113.59 19.68C113.59 18.82 113.303 18.1 112.73 17.52C112.157 16.9333 111.443 16.64 110.59 16.64C109.737 16.64 109.023 16.9333 108.45 17.52C107.877 18.1 107.59 18.82 107.59 19.68C107.59 20.5333 107.877 21.2533 108.45 21.84ZM115.928 16.33V19.47L119.078 16.33H119.658L116.428 19.52L119.848 23H119.248L116.108 19.82L115.928 19.99V23H115.488V16.33H115.928ZM124.088 16.33V16.73H121.328V19.15H124.028V19.55H121.328V22.6H124.088V23H120.888V16.33H124.088Z" fill="white"/>
<line x1="47.5" y1="3" x2="47.5" y2="23" stroke="white"/>
</svg>
