<svg width="1440" height="36" viewBox="0 0 1440 36" fill="none" xmlns="http://www.w3.org/2000/svg">
<path d="M-5.2 2.84H12.56C15.68 2.84 15.92 4.04 15.92 7.16C15.92 10.376 15.68 11 12.56 11H-5.2V2.84ZM17.984 35H23.552L10.496 12.44H13.52C17.744 12.44 21.2 11.384 21.2 7.16C21.2 2.936 17.744 1.4 13.52 1.4H-10V35H-5.2V12.44H5.024L17.984 35ZM46.6306 8.12L53.8306 20.6H38.3746L45.5746 8.12H46.6306ZM62.1346 35H67.7026L48.2626 1.4H47.7826L28.3906 35H30.0706L37.6066 22.04H54.6466L62.1346 35ZM95.5756 11H77.8156V2.84H95.5756C98.6956 2.84 98.9356 4.04 98.9356 7.16C98.9356 10.376 98.6956 11 95.5756 11ZM96.5356 12.44C100.76 12.44 104.216 11.384 104.216 7.16C104.216 2.936 100.76 1.4 96.5356 1.4H73.0156V35H77.8156V12.44H96.5356ZM113.816 11V1.4H109.016V35H113.816V12.44H141.176V35H145.976V1.4H141.176V11H113.816ZM158.909 11V2.84H182.573L183.389 1.4H154.109V35H184.493L185.309 33.56H158.909V12.44H177.005L177.821 11H158.909ZM194.581 2.84H212.341C215.461 2.84 215.701 4.04 215.701 7.16C215.701 10.376 215.461 11 212.341 11H194.581V2.84ZM217.765 35H223.333L210.277 12.44H213.301C217.525 12.44 220.981 11.384 220.981 7.16C220.981 2.936 217.525 1.4 213.301 1.4H189.781V35H194.581V12.44H204.805L217.765 35Z" fill="#E2E7E7"/>
<path d="M245.951 11H228.191V2.84H245.951C249.071 2.84 249.311 4.04 249.311 7.16C249.311 10.376 249.071 11 245.951 11ZM246.911 12.44C251.135 12.44 254.591 11.384 254.591 7.16C254.591 2.936 251.135 1.4 246.911 1.4H223.391V35H228.191V12.44H246.911ZM264.191 11V1.4H259.391V35H264.191V12.44H291.551V35H296.351V1.4H291.551V11H264.191ZM302.562 18.248C302.562 29.768 313.363 35.624 322.963 35.624C332.562 35.624 343.411 29.768 343.411 18.248C343.411 6.584 332.562 0.775997 322.963 0.775997C313.363 0.775997 302.562 6.584 302.562 18.248ZM307.555 17.96C307.603 9.464 312.931 2.024 322.963 1.928C332.899 1.832 338.419 9.704 338.467 18.392C338.371 26.888 333.043 34.28 323.011 34.328C313.075 34.376 307.555 26.648 307.555 17.96ZM375.714 1.4H343.41L342.594 2.84H356.994V35H361.314L361.41 2.84H374.898L375.714 1.4ZM375.312 18.248C375.312 29.768 386.113 35.624 395.713 35.624C405.312 35.624 416.161 29.768 416.161 18.248C416.161 6.584 405.312 0.775997 395.713 0.775997C386.113 0.775997 375.312 6.584 375.312 18.248ZM380.305 17.96C380.353 9.464 385.681 2.024 395.713 1.928C405.649 1.832 411.169 9.704 411.217 18.392C411.121 26.888 405.793 34.28 395.761 34.328C385.825 34.376 380.305 26.648 380.305 17.96ZM448.685 32.264C446.477 33.56 443.741 34.328 440.573 34.328C430.637 34.376 425.117 26.648 425.117 17.96C425.165 9.464 430.493 2.024 440.525 1.928C445.565 1.88 449.453 3.848 452.093 6.968L453.485 4.52C449.693 2.024 444.989 0.775997 440.525 0.775997C430.925 0.775997 420.125 6.584 420.125 18.248C420.125 29.768 430.925 35.624 440.525 35.624C444.989 35.624 449.693 34.376 453.485 31.88V11H446.189L445.373 12.44H448.685V32.264ZM467.909 2.84H485.669C488.789 2.84 489.029 4.04 489.029 7.16C489.029 10.376 488.789 11 485.669 11H467.909V2.84ZM491.093 35H496.661L483.605 12.44H486.629C490.853 12.44 494.309 11.384 494.309 7.16C494.309 2.936 490.853 1.4 486.629 1.4H463.109V35H467.909V12.44H478.133L491.093 35ZM519.74 8.12L526.94 20.6H511.484L518.684 8.12H519.74ZM535.244 35H540.812L521.372 1.4H520.892L501.5 35H503.18L510.716 22.04H527.756L535.244 35ZM568.685 11H550.925V2.84H568.685C571.805 2.84 572.045 4.04 572.045 7.16C572.045 10.376 571.805 11 568.685 11ZM569.645 12.44C573.869 12.44 577.325 11.384 577.325 7.16C577.325 2.936 573.869 1.4 569.645 1.4H546.125V35H550.925V12.44H569.645ZM586.925 11V1.4H582.125V35H586.925V12.44H614.285V35H619.085V1.4H614.285V11H586.925ZM632.019 11V2.84H655.683L656.499 1.4H627.219V35H657.603L658.419 33.56H632.019V12.44H650.115L650.931 11H632.019ZM667.691 2.84H685.451C688.571 2.84 688.811 4.04 688.811 7.16C688.811 10.376 688.571 11 685.451 11H667.691V2.84ZM690.875 35H696.443L683.387 12.44H686.411C690.635 12.44 694.091 11.384 694.091 7.16C694.091 2.936 690.635 1.4 686.411 1.4H662.891V35H667.691V12.44H677.915L690.875 35Z" fill="#E4E7E7" fill-opacity="0.7"/>
<path d="M719.06 11H701.3V2.84H719.06C722.18 2.84 722.42 4.04 722.42 7.16C722.42 10.376 722.18 11 719.06 11ZM720.02 12.44C724.244 12.44 727.7 11.384 727.7 7.16C727.7 2.936 724.244 1.4 720.02 1.4H696.5V35H701.3V12.44H720.02ZM737.3 11V1.4H732.5V35H737.3V12.44H764.66V35H769.46V1.4H764.66V11H737.3ZM775.672 18.248C775.672 29.768 786.472 35.624 796.072 35.624C805.672 35.624 816.52 29.768 816.52 18.248C816.52 6.584 805.672 0.775997 796.072 0.775997C786.472 0.775997 775.672 6.584 775.672 18.248ZM780.664 17.96C780.712 9.464 786.04 2.024 796.072 1.928C806.008 1.832 811.528 9.704 811.576 18.392C811.48 26.888 806.152 34.28 796.12 34.328C786.184 34.376 780.664 26.648 780.664 17.96ZM848.823 1.4H816.519L815.703 2.84H830.103V35H834.423L834.519 2.84H848.007L848.823 1.4ZM848.422 18.248C848.422 29.768 859.222 35.624 868.822 35.624C878.422 35.624 889.27 29.768 889.27 18.248C889.27 6.584 878.422 0.775997 868.822 0.775997C859.222 0.775997 848.422 6.584 848.422 18.248ZM853.414 17.96C853.462 9.464 858.79 2.024 868.822 1.928C878.758 1.832 884.278 9.704 884.326 18.392C884.23 26.888 878.902 34.28 868.87 34.328C858.934 34.376 853.414 26.648 853.414 17.96ZM921.794 32.264C919.586 33.56 916.85 34.328 913.682 34.328C903.746 34.376 898.226 26.648 898.226 17.96C898.274 9.464 903.602 2.024 913.634 1.928C918.674 1.88 922.562 3.848 925.202 6.968L926.594 4.52C922.802 2.024 918.098 0.775997 913.634 0.775997C904.034 0.775997 893.234 6.584 893.234 18.248C893.234 29.768 904.034 35.624 913.634 35.624C918.098 35.624 922.802 34.376 926.594 31.88V11H919.298L918.482 12.44H921.794V32.264ZM941.019 2.84H958.779C961.899 2.84 962.139 4.04 962.139 7.16C962.139 10.376 961.899 11 958.779 11H941.019V2.84ZM964.203 35H969.771L956.715 12.44H959.739C963.963 12.44 967.419 11.384 967.419 7.16C967.419 2.936 963.963 1.4 959.739 1.4H936.219V35H941.019V12.44H951.243L964.203 35ZM992.849 8.12L1000.05 20.6H984.593L991.793 8.12H992.849ZM1008.35 35H1013.92L994.481 1.4H994.001L974.609 35H976.289L983.825 22.04H1000.87L1008.35 35ZM1041.79 11H1024.03V2.84H1041.79C1044.91 2.84 1045.15 4.04 1045.15 7.16C1045.15 10.376 1044.91 11 1041.79 11ZM1042.75 12.44C1046.98 12.44 1050.43 11.384 1050.43 7.16C1050.43 2.936 1046.98 1.4 1042.75 1.4H1019.23V35H1024.03V12.44H1042.75ZM1060.03 11V1.4H1055.23V35H1060.03V12.44H1087.39V35H1092.19V1.4H1087.39V11H1060.03ZM1105.13 11V2.84H1128.79L1129.61 1.4H1100.33V35H1130.71L1131.53 33.56H1105.13V12.44H1123.22L1124.04 11H1105.13ZM1140.8 2.84H1158.56C1161.68 2.84 1161.92 4.04 1161.92 7.16C1161.92 10.376 1161.68 11 1158.56 11H1140.8V2.84ZM1163.98 35H1169.55L1156.5 12.44H1159.52C1163.74 12.44 1167.2 11.384 1167.2 7.16C1167.2 2.936 1163.74 1.4 1159.52 1.4H1136V35H1140.8V12.44H1151.02L1163.98 35Z" fill="#E7E7E3"/>
<path d="M1192.17 11H1174.41V2.84H1192.17C1195.29 2.84 1195.53 4.04 1195.53 7.16C1195.53 10.376 1195.29 11 1192.17 11ZM1193.13 12.44C1197.35 12.44 1200.81 11.384 1200.81 7.16C1200.81 2.936 1197.35 1.4 1193.13 1.4H1169.61V35H1174.41V12.44H1193.13ZM1210.41 11V1.4H1205.61V35H1210.41V12.44H1237.77V35H1242.57V1.4H1237.77V11H1210.41ZM1248.78 18.248C1248.78 29.768 1259.58 35.624 1269.18 35.624C1278.78 35.624 1289.63 29.768 1289.63 18.248C1289.63 6.584 1278.78 0.775997 1269.18 0.775997C1259.58 0.775997 1248.78 6.584 1248.78 18.248ZM1253.77 17.96C1253.82 9.464 1259.15 2.024 1269.18 1.928C1279.12 1.832 1284.64 9.704 1284.69 18.392C1284.59 26.888 1279.26 34.28 1269.23 34.328C1259.29 34.376 1253.77 26.648 1253.77 17.96ZM1321.93 1.4H1289.63L1288.81 2.84H1303.21V35H1307.53L1307.63 2.84H1321.12L1321.93 1.4ZM1321.53 18.248C1321.53 29.768 1332.33 35.624 1341.93 35.624C1351.53 35.624 1362.38 29.768 1362.38 18.248C1362.38 6.584 1351.53 0.775997 1341.93 0.775997C1332.33 0.775997 1321.53 6.584 1321.53 18.248ZM1326.52 17.96C1326.57 9.464 1331.9 2.024 1341.93 1.928C1351.87 1.832 1357.39 9.704 1357.44 18.392C1357.34 26.888 1352.01 34.28 1341.98 34.328C1332.04 34.376 1326.52 26.648 1326.52 17.96ZM1394.9 32.264C1392.7 33.56 1389.96 34.328 1386.79 34.328C1376.86 34.376 1371.34 26.648 1371.34 17.96C1371.38 9.464 1376.71 2.024 1386.74 1.928C1391.78 1.88 1395.67 3.848 1398.31 6.968L1399.7 4.52C1395.91 2.024 1391.21 0.775997 1386.74 0.775997C1377.14 0.775997 1366.34 6.584 1366.34 18.248C1366.34 29.768 1377.14 35.624 1386.74 35.624C1391.21 35.624 1395.91 34.376 1399.7 31.88V11H1392.41L1391.59 12.44H1394.9V32.264ZM1414.13 2.84H1431.89C1435.01 2.84 1435.25 4.04 1435.25 7.16C1435.25 10.376 1435.01 11 1431.89 11H1414.13V2.84ZM1437.31 35H1442.88L1429.82 12.44H1432.85C1437.07 12.44 1440.53 11.384 1440.53 7.16C1440.53 2.936 1437.07 1.4 1432.85 1.4H1409.33V35H1414.13V12.44H1424.35L1437.31 35Z" fill="#E2E7E7" fill-opacity="0.7"/>
</svg>
