<svg width="469" height="36" viewBox="0 0 469 36" fill="none" xmlns="http://www.w3.org/2000/svg">
<path d="M17.56 11H-0.2V2.84H17.56C20.68 2.84 20.92 4.04 20.92 7.16C20.92 10.376 20.68 11 17.56 11ZM18.52 12.44C22.744 12.44 26.2 11.384 26.2 7.16C26.2 2.936 22.744 1.4 18.52 1.4H-5V35H-0.2V12.44H18.52ZM35.8 11V1.4H31V35H35.8V12.44H63.16V35H67.96V1.4H63.16V11H35.8ZM74.1719 18.248C74.1719 29.768 84.9719 35.624 94.5719 35.624C104.172 35.624 115.02 29.768 115.02 18.248C115.02 6.584 104.172 0.775997 94.5719 0.775997C84.9719 0.775997 74.1719 6.584 74.1719 18.248ZM79.1639 17.96C79.2119 9.464 84.5399 2.024 94.5719 1.928C104.508 1.832 110.028 9.704 110.076 18.392C109.98 26.888 104.652 34.28 94.6199 34.328C84.6839 34.376 79.1639 26.648 79.1639 17.96ZM147.323 1.4H115.019L114.203 2.84H128.603V35H132.923L133.019 2.84H146.507L147.323 1.4ZM146.922 18.248C146.922 29.768 157.722 35.624 167.322 35.624C176.922 35.624 187.77 29.768 187.77 18.248C187.77 6.584 176.922 0.775997 167.322 0.775997C157.722 0.775997 146.922 6.584 146.922 18.248ZM151.914 17.96C151.962 9.464 157.29 2.024 167.322 1.928C177.258 1.832 182.778 9.704 182.826 18.392C182.73 26.888 177.402 34.28 167.37 34.328C157.434 34.376 151.914 26.648 151.914 17.96ZM220.294 32.264C218.086 33.56 215.35 34.328 212.182 34.328C202.246 34.376 196.726 26.648 196.726 17.96C196.774 9.464 202.102 2.024 212.134 1.928C217.174 1.88 221.062 3.848 223.702 6.968L225.094 4.52C221.302 2.024 216.598 0.775997 212.134 0.775997C202.534 0.775997 191.734 6.584 191.734 18.248C191.734 29.768 202.534 35.624 212.134 35.624C216.598 35.624 221.302 34.376 225.094 31.88V11H217.798L216.982 12.44H220.294V32.264ZM239.519 2.84H257.279C260.399 2.84 260.639 4.04 260.639 7.16C260.639 10.376 260.399 11 257.279 11H239.519V2.84ZM262.703 35H268.271L255.215 12.44H258.239C262.463 12.44 265.919 11.384 265.919 7.16C265.919 2.936 262.463 1.4 258.239 1.4H234.719V35H239.519V12.44H249.743L262.703 35ZM291.349 8.12L298.549 20.6H283.093L290.293 8.12H291.349ZM306.853 35H312.421L292.981 1.4H292.501L273.109 35H274.789L282.325 22.04H299.365L306.853 35ZM340.294 11H322.534V2.84H340.294C343.414 2.84 343.654 4.04 343.654 7.16C343.654 10.376 343.414 11 340.294 11ZM341.254 12.44C345.478 12.44 348.934 11.384 348.934 7.16C348.934 2.936 345.478 1.4 341.254 1.4H317.734V35H322.534V12.44H341.254ZM358.534 11V1.4H353.734V35H358.534V12.44H385.894V35H390.694V1.4H385.894V11H358.534ZM403.628 11V2.84H427.292L428.108 1.4H398.828V35H429.212L430.028 33.56H403.628V12.44H421.724L422.54 11H403.628ZM439.3 2.84H457.06C460.18 2.84 460.42 4.04 460.42 7.16C460.42 10.376 460.18 11 457.06 11H439.3V2.84ZM462.484 35H468.052L454.996 12.44H458.02C462.244 12.44 465.7 11.384 465.7 7.16C465.7 2.936 462.244 1.4 458.02 1.4H434.5V35H439.3V12.44H449.524L462.484 35Z" fill="#E4E7E7" fill-opacity="0.7"/>
</svg>
